<?xml version="1.0" encoding="UTF-8" standalone="no"?>
<!-- Created with Inkscape (http://www.inkscape.org/) -->

<svg
   xmlns:dc="http://purl.org/dc/elements/1.1/"
   xmlns:cc="http://creativecommons.org/ns#"
   xmlns:rdf="http://www.w3.org/1999/02/22-rdf-syntax-ns#"
   xmlns:svg="http://www.w3.org/2000/svg"
   xmlns="http://www.w3.org/2000/svg"
   xmlns:xlink="http://www.w3.org/1999/xlink"
   xmlns:sodipodi="http://sodipodi.sourceforge.net/DTD/sodipodi-0.dtd"
   xmlns:inkscape="http://www.inkscape.org/namespaces/inkscape"
   id="svg2"
   height="100"
   width="100"
   version="1.1"
   inkscape:version="0.48.2 r9819"
   sodipodi:docname="BorderEmbellishment.svg">
  <defs
     id="defs9">
    <linearGradient
       inkscape:collect="always"
       id="linearGradient3875">
      <stop
         style="stop-color:#000000;stop-opacity:1;"
         offset="0"
         id="stop3877" />
      <stop
         style="stop-color:#000000;stop-opacity:0;"
         offset="1"
         id="stop3879" />
    </linearGradient>
    <linearGradient
       id="linearGradient3896">
      <stop
         style="stop-color:#dbb458;stop-opacity:1;"
         offset="0"
         id="stop3898" />
      <stop
         id="stop3904"
         offset="0.5"
         style="stop-color:#e9c869;stop-opacity:1;" />
      <stop
         style="stop-color:#f5eacf;stop-opacity:1;"
         offset="1"
         id="stop3900" />
    </linearGradient>
    <radialGradient
       inkscape:collect="always"
       xlink:href="#linearGradient3896-8"
       id="radialGradient3916-8"
       cx="19.9"
       cy="-34.9"
       fx="19.9"
       fy="-34.9"
       r="9.73"
       gradientTransform="matrix(1,0,0,0.841,0,-5.56)"
       gradientUnits="userSpaceOnUse" />
    <linearGradient
       id="linearGradient3896-8">
      <stop
         style="stop-color:#dbb458;stop-opacity:1;"
         offset="0"
         id="stop3898-2" />
      <stop
         id="stop3904-7"
         offset="0.5"
         style="stop-color:#e9c869;stop-opacity:1;" />
      <stop
         style="stop-color:#f5eacf;stop-opacity:1;"
         offset="1"
         id="stop3900-7" />
    </linearGradient>
    <radialGradient
       r="9.73"
       fy="-34.9"
       fx="19.9"
       cy="-34.9"
       cx="19.9"
       gradientTransform="matrix(1,0,0,0.841,0,-5.56)"
       gradientUnits="userSpaceOnUse"
       id="radialGradient3934"
       xlink:href="#linearGradient3896-8"
       inkscape:collect="always" />
    <radialGradient
       r="9.73"
       fy="-34.9"
       fx="19.9"
       cy="-34.9"
       cx="19.9"
       gradientTransform="matrix(1,0,0,0.841,0,-5.56)"
       gradientUnits="userSpaceOnUse"
       id="radialGradient3934-2"
       xlink:href="#linearGradient3896-8-6"
       inkscape:collect="always" />
    <linearGradient
       id="linearGradient3896-8-6">
      <stop
         style="stop-color:#dbb458;stop-opacity:1;"
         offset="0"
         id="stop3898-2-0" />
      <stop
         id="stop3904-7-4"
         offset="0.5"
         style="stop-color:#e9c869;stop-opacity:1;" />
      <stop
         style="stop-color:#f5eacf;stop-opacity:1;"
         offset="1"
         id="stop3900-7-9" />
    </linearGradient>
    <radialGradient
       r="9.73"
       fy="-34.9"
       fx="19.9"
       cy="-34.9"
       cx="19.9"
       gradientTransform="matrix(1,0,0,0.841,0,-5.56)"
       gradientUnits="userSpaceOnUse"
       id="radialGradient3971"
       xlink:href="#linearGradient3896-8-6"
       inkscape:collect="always" />
    <radialGradient
       r="9.73"
       fy="-34.9"
       fx="19.9"
       cy="-34.9"
       cx="19.9"
       gradientTransform="matrix(1,0,0,0.841,0,-5.56)"
       gradientUnits="userSpaceOnUse"
       id="radialGradient3934-6"
       xlink:href="#linearGradient3896-8-0"
       inkscape:collect="always" />
    <linearGradient
       id="linearGradient3896-8-0">
      <stop
         style="stop-color:#dbb458;stop-opacity:1;"
         offset="0"
         id="stop3898-2-3" />
      <stop
         id="stop3904-7-6"
         offset="0.5"
         style="stop-color:#e9c869;stop-opacity:1;" />
      <stop
         style="stop-color:#f5eacf;stop-opacity:1;"
         offset="1"
         id="stop3900-7-2" />
    </linearGradient>
    <radialGradient
       r="9.73"
       fy="-34.9"
       fx="19.9"
       cy="-34.9"
       cx="19.9"
       gradientTransform="matrix(1,0,0,0.841,0,-5.56)"
       gradientUnits="userSpaceOnUse"
       id="radialGradient4008"
       xlink:href="#linearGradient3896-8-0"
       inkscape:collect="always" />
    <radialGradient
       inkscape:collect="always"
       xlink:href="#linearGradient3896"
       id="radialGradient4055"
       cx="12.9"
       cy="-18.6"
       fx="12.9"
       fy="-18.6"
       r="13.3"
       gradientTransform="matrix(1,0,0,0.944,0,-1.3)"
       gradientUnits="userSpaceOnUse" />
    <radialGradient
       inkscape:collect="always"
       xlink:href="#linearGradient3896"
       id="radialGradient4065"
       cx="14.1"
       cy="-24.3"
       fx="14.1"
       fy="-24.3"
       r="12.7"
       gradientTransform="matrix(0.828,0,0,0.719,13.3,2.97)"
       gradientUnits="userSpaceOnUse" />
    <radialGradient
       inkscape:collect="always"
       xlink:href="#linearGradient3896-5"
       id="radialGradient4065-4"
       cx="14.1"
       cy="-24.3"
       fx="14.1"
       fy="-24.3"
       r="12.7"
       gradientTransform="matrix(0.828,0,0,0.719,13.3,2.97)"
       gradientUnits="userSpaceOnUse" />
    <linearGradient
       id="linearGradient3896-5">
      <stop
         style="stop-color:#dbb458;stop-opacity:1;"
         offset="0"
         id="stop3898-29" />
      <stop
         id="stop3904-9"
         offset="0.5"
         style="stop-color:#e9c869;stop-opacity:1;" />
      <stop
         style="stop-color:#f5eacf;stop-opacity:1;"
         offset="1"
         id="stop3900-8" />
    </linearGradient>
    <radialGradient
       r="12.7"
       fy="-24.3"
       fx="14.1"
       cy="-24.3"
       cx="14.1"
       gradientTransform="matrix(0.828,0,0,0.719,17.2,-8.12)"
       gradientUnits="userSpaceOnUse"
       id="radialGradient4083"
       xlink:href="#linearGradient3896-5"
       inkscape:collect="always" />
    <radialGradient
       inkscape:collect="always"
       xlink:href="#linearGradient3896"
       id="radialGradient4120"
       cx="11.6"
       cy="-10.2"
       fx="11.6"
       fy="-10.2"
       r="12.4"
       gradientTransform="matrix(0.896,0.078,-0.052,0.597,-80.4,-62.3)"
       gradientUnits="userSpaceOnUse" />
    <radialGradient
       inkscape:collect="always"
       xlink:href="#linearGradient3896"
       id="radialGradient4130"
       cx="-83.2"
       cy="-80.5"
       fx="-83.2"
       fy="-80.5"
       r="22.9"
       gradientTransform="matrix(1,0,0,1.14,0,11.3)"
       gradientUnits="userSpaceOnUse" />
    <radialGradient
       inkscape:collect="always"
       xlink:href="#linearGradient3896-7"
       id="radialGradient4133-5"
       gradientUnits="userSpaceOnUse"
       gradientTransform="matrix(0.588,0,0,0.671,61.8,36.4)"
       cx="-83.2"
       cy="-80.5"
       fx="-83.2"
       fy="-80.5"
       r="22.9" />
    <linearGradient
       id="linearGradient3896-7">
      <stop
         style="stop-color:#dbb458;stop-opacity:1;"
         offset="0"
         id="stop3898-8" />
      <stop
         id="stop3904-2"
         offset="0.5"
         style="stop-color:#e9c869;stop-opacity:1;" />
      <stop
         style="stop-color:#f5eacf;stop-opacity:1;"
         offset="1"
         id="stop3900-78" />
    </linearGradient>
    <radialGradient
       r="22.9"
       fy="-80.5"
       fx="-83.2"
       cy="-80.5"
       cx="-83.2"
       gradientTransform="matrix(0.588,0,0,0.671,76.9,30.5)"
       gradientUnits="userSpaceOnUse"
       id="radialGradient4151-2"
       xlink:href="#linearGradient3896-7-0"
       inkscape:collect="always" />
    <linearGradient
       id="linearGradient3896-7-0">
      <stop
         style="stop-color:#dbb458;stop-opacity:1;"
         offset="0"
         id="stop3898-8-8" />
      <stop
         id="stop3904-2-9"
         offset="0.5"
         style="stop-color:#e9c869;stop-opacity:1;" />
      <stop
         style="stop-color:#f5eacf;stop-opacity:1;"
         offset="1"
         id="stop3900-78-2" />
    </linearGradient>
    <radialGradient
       r="22.9"
       fy="-80.5"
       fx="-83.2"
       cy="-80.5"
       cx="-83.2"
       gradientTransform="matrix(0.588,0,0,0.671,72.1,40.8)"
       gradientUnits="userSpaceOnUse"
       id="radialGradient4188-2"
       xlink:href="#linearGradient3896-7-0-0"
       inkscape:collect="always" />
    <linearGradient
       id="linearGradient3896-7-0-0">
      <stop
         style="stop-color:#dbb458;stop-opacity:1;"
         offset="0"
         id="stop3898-8-8-5" />
      <stop
         id="stop3904-2-9-5"
         offset="0.5"
         style="stop-color:#e9c869;stop-opacity:1;" />
      <stop
         style="stop-color:#f5eacf;stop-opacity:1;"
         offset="1"
         id="stop3900-78-2-2" />
    </linearGradient>
    <radialGradient
       inkscape:collect="always"
       xlink:href="#linearGradient3875"
       id="radialGradient3881"
       cx="23.3"
       cy="-45.2"
       fx="23.3"
       fy="-45.2"
       r="25.3"
       gradientTransform="matrix(0.355,0,0,0.194,1.05,-40)"
       gradientUnits="userSpaceOnUse" />
  </defs>
  <sodipodi:namedview
     pagecolor="#ffffff"
     bordercolor="#666666"
     borderopacity="1"
     objecttolerance="10"
     gridtolerance="10"
     guidetolerance="10"
     inkscape:pageopacity="0"
     inkscape:pageshadow="2"
     inkscape:window-width="1320"
     inkscape:window-height="831"
     id="namedview7"
     showgrid="true"
     inkscape:zoom="15.6"
     inkscape:cx="-6.17"
     inkscape:cy="113"
     inkscape:window-x="2072"
     inkscape:window-y="132"
     inkscape:window-maximized="0"
     inkscape:current-layer="svg2"
     inkscape:snap-global="false">
    <inkscape:grid
       type="xygrid"
       id="grid3005"
       empspacing="5"
       visible="true"
       enabled="true"
       snapvisiblegridlinesonly="true"
       originx="0px"
       originy="0px" />
  </sodipodi:namedview>
  <metadata
     id="metadata7">
    <rdf:RDF>
      <cc:Work
         rdf:about="">
        <dc:format>image/svg+xml</dc:format>
        <dc:type
           rdf:resource="http://purl.org/dc/dcmitype/StillImage" />
        <dc:title />
      </cc:Work>
    </rdf:RDF>
  </metadata>
  <path
     style="fill:#000000"
     d=""
     id="path3770"
     inkscape:connector-curvature="0" />
  <path
     style="fill:#000000"
     d=""
     id="path3768"
     inkscape:connector-curvature="0" />
  <image
     y="-125"
     x="-119"
     id="image3058"
     xlink:href="file:///C:/wamp/www/l8s/image/V2terrain0.gif"
     height="52.7"
     width="60.2" />
  <path
     inkscape:connector-curvature="0"
     id="path3075"
     d="M -77.8,56.8 C -78.1,56.3 -79.8,56.2 -82.7,56.5 -86.4,57 -87.2,56.8 -88.6,55.4 -89.4,54.6 -91,53.8 -92.1,53.8 -93.1,53.8 -94,53.4 -94,52.9 -94,52.3 -94.5,51.2 -95.1,50.3 -95.4,48.7 -96.4,48.7 -98.4,50.1 -100,51 -102,51.4 -103,51.1 -104,50.5 -104,48.1 -103,47.5 -100,46.4 -100,38.8 -103,38.8 -106,38.8 -107,38.1 -106,35.5 -105,34.1 -104,31.6 -105,29.1 -105,26.7 -105,23.3 -105,21.5 L -105,18.1 -100,17.7 -95.4,17.3 -98.4,15.6 C -100,14.7 -101,13.6 -101,13.3 -98.4,7.19 -98.4,6.99 -95.4,7.39 -94.3,7.59 -93.1,7.49 -92.8,7.09 -91.9,5.69 -88.8,6.39 -87.6,8.29 -86.5,9.99 -86.1,10.1 -81.8,9.79 -77.9,9.59 -76.9,9.19 -76.3,7.89 -75.7,6.59 -75.1,6.29 -73,6.59 -71.5,6.79 -69.1,6.49 -67.8,5.89 -65.7,4.99 -65.1,4.99 -63.6,5.99 -62.7,6.59 -61.4,7.19 -60.8,7.19 -60.1,7.19 -59.1,7.69 -58.6,8.29 -57.8,9.19 -57.8,9.79 -58.7,11.5 -59.2,12.7 -59.8,13.9 -59.9,14.2 -60.1,14.5 -59.4,14.5 -58.4,14.3 -56,13.7 -55.1,15 -54.4,19.7 -53.9,23.2 -54.1,23.7 -55.5,24.6 -56.3,25.2 -57.1,25.8 -57.1,26.1 -57.1,27.4 -54.7,26.7 -52.9,24.9 -50.1,22.1 -49.2,22.5 -48.3,27 -47.5,30.9 -48,32.4 -50.1,31.6 -51,31.3 -53.3,34.3 -53.3,35.7 -53.3,36.1 -52.3,37 -51,37.6 -49.3,38.6 -48.8,39.3 -49,40.5 -49.2,42 -49.6,42.2 -54,42.1 L -58.7,42 -58.2,46.6 C -57.2,54.4 -57.2,54.2 -60,54.4 -61.7,54.6 -63,54.2 -64.2,53.1 L -66,51.4 -67.5,53 C -68.4,53.9 -69.1,55 -69.1,55.3 -69.1,56.7 -71.2,56.1 -72.4,54.4 -73.3,53.3 -73.9,53 -74.1,53.6 -75,55.6 -77.2,57.7 -77.8,56.8 z"
     style="fill:#dddee0;fill-opacity:1" />
  <path
     inkscape:connector-curvature="0"
     id="path3073"
     d="M -83,38.7 C -83.4,38 -84.8,37.9 -87.9,38.2 -92.1,38.7 -92.3,38.6 -93.9,36.4 -95,34.9 -95.9,34.3 -96.8,34.6 -97.9,34.8 -98.6,34.1 -99.6,31.8 -101,28.5 -102,28.2 -103,30 -105,31.7 -108,32.8 -109,31.8 -109,31.3 -109,30.5 -108,29.3 -106,27.3 -106,25.7 -106,22.1 -107,20 -107,19.7 -110,19.7 L -113,19.7 -111,17.4 C -110,15 -110,14.2 -110,3.54 L -110,0.539 -106,0.339 C -100,0.139 -99.2,-1.26 -103,-2.86 -106,-4.06 -106,-4.56 -104,-7.76 -103,-9.96 -103,-10.4 -101,-9.96 -99.9,-9.76 -98.5,-10.1 -97.5,-10.7 -95.3,-12.3 -95,-12.2 -93.6,-9.66 -92.5,-7.46 -92.4,-7.36 -87.1,-7.66 -82.3,-7.86 -81.6,-8.16 -81,-9.56 -80.2,-11.9 -78.2,-12.4 -76.9,-10.7 -75.9,-9.26 -75.9,-9.26 -74.6,-10.9 -72.6,-13.3 -70.2,-13.8 -69.2,-11.9 -68.7,-11.1 -67.7,-10.4 -67,-10.4 -66.2,-10.4 -65.2,-9.86 -64.6,-9.26 -63.9,-8.36 -64,-7.76 -64.9,-6.26 -66.7,-3.46 -66.4,-2.86 -63.7,-2.96 -61.3,-3.16 -61.3,-3.16 -60.6,0.839 -59.9,4.64 -60,5.04 -61.5,6.04 -62.4,6.64 -63.1,7.64 -63.1,8.24 -63.1,9.84 -59.6,8.94 -57.3,6.84 -56.4,5.94 -55.5,5.34 -55.4,5.54 -54.9,6.34 -53.4,9.84 -53,11.4 -52.4,12.9 -52.6,13.1 -54.4,12.8 -56,12.5 -56.7,12.9 -57.9,14.5 -60,17.4 -59.7,18.6 -57.1,19.7 -55.7,20.3 -54.9,21.2 -54.9,22.1 -54.9,23.5 -55.3,23.6 -59.6,23.4 L -64.3,23.1 -64.3,26.1 C -64.2,27.8 -64,30.5 -63.9,32.1 -63.5,35 -63.7,35.2 -65.7,35.4 -67,35.5 -68.3,35.2 -69.2,34.2 -71,32.2 -73.5,32.8 -74.5,35.5 L -75.3,37.4 -76.6,35.6 C -78.3,33.4 -80.1,33.9 -81.4,37.2 -82.1,38.8 -82.6,39.3 -83,38.7 z"
     style="fill:#c8cccf;fill-opacity:1" />
  <path
     inkscape:connector-curvature="0"
     id="path3071"
     d="M -82,21.9 C -82.4,21.3 -83.9,21.2 -86.8,21.5 -91,22 -91.1,21.9 -92.5,19.6 -93.5,17.9 -94.3,17.3 -95.3,17.6 -96.4,17.9 -97.1,17.2 -98.4,14.6 -100,11.3 -100,11.3 -102,12.7 -103,14.2 -107,15.7 -107,14.8 -107,14.5 -107,13.3 -106,12.1 -104,10.3 -104,9.43 -105,6.33 L -105,2.63 -109,2.83 -112,3.03 -110,0.229 C -108,-2.67 -108,-4.57 -109,-10.5 -110,-15.8 -109,-16.5 -103,-16.5 -98.3,-16.5 -97.9,-17.5 -102,-19.6 -105,-21.4 -105,-22 -103,-24.8 -102,-26.4 -101,-26.8 -99.7,-26.5 -98.9,-26.3 -97.3,-26.6 -96.3,-27.1 -94.6,-28.1 -94.3,-28 -92.8,-26.1 -91.3,-24.3 -90.7,-24.2 -85.7,-24.3 -80.7,-24.4 -80.3,-24.5 -79.8,-26.1 -79.4,-28.1 -77.5,-28.4 -75.6,-26.6 -74.3,-25.5 -74.2,-25.5 -73.3,-27.3 -72.1,-30.1 -69.6,-30.5 -67.9,-28.2 -67.2,-27.2 -65.9,-26.3 -65.1,-26.3 -63.3,-26.3 -63.1,-23.9 -64.8,-22.6 -66.7,-20.9 -66.1,-19.6 -63.3,-19.6 -60.9,-19.6 -60.8,-19.3 -59.9,-16 -59,-12.6 -59.1,-12.3 -60.9,-10.9 -62,-9.97 -62.9,-8.87 -62.9,-8.37 -62.9,-6.97 -58.7,-7.37 -56.6,-8.97 -54.4,-10.8 -53.9,-10.9 -53.9,-9.47 -53.9,-8.87 -53.6,-8.27 -53.3,-8.07 -52.9,-7.97 -52.4,-6.97 -52.1,-5.87 -51.6,-3.87 -51.7,-3.77 -53.7,-4.17 -55.7,-4.57 -56.1,-4.27 -57.6,-1.77 L -59.4,1.03 -57.8,2.23 C -57,2.93 -55.7,3.83 -54.9,4.33 -52.6,5.83 -55.1,6.83 -59.6,6.33 -64.2,5.73 -64.8,6.63 -63.6,11.7 -62.1,18.3 -63.5,20.3 -67.6,17.3 -70.2,15.4 -73,15.7 -73.6,18.2 -74.1,19.8 -74.2,19.8 -75.6,18.5 -77.7,16.7 -79.7,17.3 -80.6,20.3 -81.2,21.8 -81.7,22.5 -82,21.9 z"
     style="fill:#90b2e2;fill-opacity:1" />
  <path
     inkscape:connector-curvature="0"
     id="path3069"
     d="M -82.4,-12.9 C -82.6,-13.2 -82.5,-13.6 -82.1,-13.6 -81.6,-13.6 -81.2,-13.2 -81.2,-12.9 -81.2,-12.5 -81.4,-12.1 -81.5,-12.1 -81.8,-12.1 -82.2,-12.5 -82.4,-12.9 z M -91.5,-13.5 C -90.9,-14.4 -94.8,-18.3 -95.9,-17.8 -96.6,-17.6 -97.4,-18.6 -98.3,-20.8 -99.1,-22.6 -100,-24.1 -100,-24.1 -101,-24.1 -102,-23.3 -103,-22.3 -104,-21.2 -105,-20.4 -106,-20.4 -107,-20.4 -107,-20.5 -106,-22 -105,-23 -104,-24.6 -104,-26.8 -104,-31.4 -105,-32.4 -108,-32.4 -110,-32.4 -111,-33.7 -109,-35.2 -108,-36.3 -108,-41.2 -109,-46.5 L -109,-50.5 -104,-50.5 C -99.9,-50.5 -99.3,-50.6 -99.3,-51.9 -99.3,-52.8 -100,-54 -102,-54.9 L -105,-56.5 -103,-58.8 C -102,-60.3 -101,-60.9 -100,-60.6 -99.3,-60.4 -97.9,-60.6 -96.7,-61.1 -95.1,-61.9 -94.6,-61.8 -93.4,-60.2 -92.1,-58.6 -91.3,-58.4 -86.2,-58.4 -80.6,-58.4 -80.5,-58.5 -79.8,-60.5 -78.9,-63 -78.1,-63.1 -76.4,-60.8 L -75.3,-59.2 -73.7,-60.9 C -72.9,-61.9 -72.4,-63 -72.7,-63.4 -73,-64 -72.7,-64.1 -69.8,-64.3 -69.3,-64.4 -68.9,-64 -69.1,-63.5 -69.1,-62.9 -68.2,-61.9 -67,-61.2 -64.3,-59.7 -64.2,-59.4 -65.9,-56.9 -67.4,-54.6 -66.7,-53.5 -63.6,-53.5 -61.2,-53.5 -61,-53.3 -60.6,-50.4 -60.1,-47.6 -60.3,-47.1 -62,-45.5 -63.1,-44.4 -63.9,-43.2 -63.7,-42.7 -63.3,-41.2 -60.3,-41.3 -57.5,-42.9 -55.3,-44.2 -54.8,-44.2 -54.5,-43.3 -54.2,-42.7 -53.7,-42.4 -53.4,-42.6 -52.8,-43 -51.8,-39.1 -52.4,-38.5 -52.6,-38.3 -53,-38.6 -53.3,-39.1 -54.2,-40.5 -56.6,-39.9 -57.5,-37.9 -58,-37.1 -58.8,-35.8 -59.3,-35.1 -60.3,-34.1 -60.2,-33.7 -59,-32.4 -58.3,-31.6 -57.1,-30.8 -56.3,-30.5 -53.2,-29.5 -55.1,-28.6 -59.7,-28.8 L -64.3,-29 -64.1,-22.9 C -63.9,-17.1 -64,-16.6 -65.3,-16.6 -66,-16.6 -67.3,-17.3 -68.1,-18.1 -69.8,-20.1 -71.8,-20 -73.8,-18 -74.9,-16.9 -75.6,-16.7 -76.2,-17.3 -77.7,-18.8 -80.5,-18.3 -81.2,-16.2 -81.8,-14.8 -82.5,-14.4 -84.3,-14.4 -85.5,-14.4 -86.5,-14 -86.5,-13.6 -86.5,-13.2 -87.7,-12.9 -89.2,-12.9 -90.7,-12.9 -91.7,-13.2 -91.5,-13.5 z M -112,-32 C -112,-32.2 -112,-32.6 -111,-32.8 -111,-33 -111,-32.9 -111,-32.5 -111,-32.1 -111,-31.7 -111,-31.7 -112,-31.7 -112,-31.8 -112,-32 z"
     style="fill:#97a295" />
  <path
     inkscape:connector-curvature="0"
     id="path3067"
     d="M -82.9,4.61 C -83.1,4.31 -83,3.91 -82.6,3.91 -82.1,3.91 -81.7,4.31 -81.7,4.61 -81.7,5.01 -81.9,5.41 -82,5.41 -82.3,5.41 -82.7,5.01 -82.9,4.61 z M -91.4,4.11 C -90.6,4.01 -89.3,4.01 -88.4,4.11 -87.4,4.31 -88,4.41 -89.6,4.41 -91.3,4.51 -92.1,4.31 -91.4,4.11 z M -92.8,1.41 C -93.6,0.405 -94.8,-0.695 -95.6,-1.09 -96.7,-1.79 -95.7,-1.99 -90.7,-1.79 -84.5,-1.79 -84.4,-1.79 -84.2,0.205 -84,1.71 -84.3,2.31 -85.7,2.71 -89,3.61 -91.4,3.11 -92.8,1.41 z M -67.9,-0.995 C -68.2,-1.59 -68.8,-2.09 -69.3,-2.09 -71,-2.09 -72.8,-4.49 -72.3,-5.89 -72.1,-6.59 -72.3,-7.49 -72.7,-7.79 -73.1,-7.99 -73.5,-9.09 -73.5,-10.1 -73.5,-11.3 -74.1,-12.2 -75.4,-12.8 -76.9,-13.5 -77.1,-13.9 -76.3,-15.2 -75.6,-16.6 -75.4,-16.6 -74.6,-15.5 -74.1,-14.8 -73.1,-14.2 -72.3,-14.2 -71.3,-14.2 -71.1,-14.6 -71.6,-16.3 -72,-17.4 -72.2,-18.9 -72.3,-19.6 -72.3,-20.5 -72.6,-20.6 -73.2,-20.1 -73.8,-19.7 -74.5,-19.5 -74.9,-19.7 -75.3,-20 -75.9,-19.8 -76.3,-19.2 -76.6,-18.7 -77.8,-17.9 -79,-17.3 -80.5,-16.7 -81,-16.1 -80.7,-15.2 -80,-13.5 -81.5,-12.7 -85.2,-12.7 -86.9,-12.7 -89.3,-12.1 -90.5,-11.5 -93.1,-10.2 -94.7,-10.1 -95.9,-11.3 -97.1,-12.5 -97.8,-11.6 -97.7,-8.89 -97.7,-7.69 -98,-6.49 -98.4,-6.29 -98.8,-5.99 -99.1,-6.19 -99.1,-6.59 -99.1,-6.99 -99.9,-7.39 -101,-7.39 -102,-7.39 -103,-6.99 -103,-6.59 -103,-6.29 -103,-5.89 -103,-5.89 -104,-5.89 -104,-11.5 -103,-12.1 -102,-13.2 -104,-15.3 -107,-15.5 -110,-15.8 -110,-15.8 -109,-17.5 -108,-19.4 -108,-22.4 -108,-28.7 L -109,-33.1 -104,-32.8 C -99.6,-32.6 -99.4,-32.7 -99.4,-34.5 -99.4,-35.8 -100,-36.7 -102,-37.5 -103,-38.1 -104,-38.7 -104,-38.8 -105,-39.2 -101,-42.4 -100,-42.2 -99.9,-42.1 -98.5,-42.3 -97.5,-42.7 -96,-43.2 -95.4,-43 -93.9,-41.5 -92.4,-39.9 -91.8,-39.7 -89.4,-40.2 -85.8,-40.9 -84.8,-40.9 -82.7,-40.2 -81.1,-39.7 -80.8,-40 -80,-42 -79,-44.8 -78.5,-44.9 -77.4,-42.4 -76.3,-40.1 -74.7,-40.6 -73.2,-43.6 -72.4,-45.2 -72.3,-45.8 -72.9,-45.8 -73.5,-45.9 -73,-46.2 -72,-46.6 -70.8,-47.1 -69.9,-47.1 -69.4,-46.6 -68.9,-46 -69,-45.8 -69.6,-45.8 -70.3,-45.8 -70.2,-45.1 -69.2,-43.5 -68.5,-42.3 -67.6,-41.3 -67.3,-41.3 -67.1,-41.3 -67,-40.1 -67.2,-38.6 -67.6,-36.2 -67.5,-36 -65.3,-35.6 -61.1,-34.7 -60.2,-30.9 -63.4,-28 -64.4,-27 -65.2,-25.8 -65,-25.2 -64.5,-23.8 -59.3,-23.7 -57.2,-25.1 -56.2,-25.7 -55.4,-26.1 -55.4,-25.9 -55.4,-25.8 -55.2,-25.1 -55,-24.4 -54.7,-23.6 -54.9,-23.2 -55.7,-23.2 -57,-23.2 -60.7,-17.9 -60.7,-16.1 -60.7,-15.5 -59.5,-14.2 -58.3,-13.3 L -55.8,-11.8 -60.1,-12.2 C -64.9,-12.7 -67,-11.5 -66.3,-8.69 -66.1,-7.79 -65.6,-5.39 -65.3,-3.49 -64.7,-0.195 -64.7,0.105 -66.1,0.105 -66.8,0.105 -67.7,-0.395 -67.9,-0.995 z M -82,-15.8 C -81.1,-17.4 -83,-18 -84.4,-16.4 -85.7,-15 -85.7,-14.9 -84.2,-14.9 -83.3,-14.9 -82.3,-15.3 -82,-15.8 z M -90,-21.8 C -90.4,-23.1 -91.1,-24.6 -91.5,-25.2 -92.8,-26.6 -91.7,-27.9 -89.4,-27.6 -88.4,-27.4 -87.4,-27.7 -87.2,-28.2 -86.9,-29.2 -91.9,-30.4 -93.1,-29.6 -93.5,-29.3 -94.3,-29.5 -94.9,-30 -95.5,-30.4 -96.3,-30.7 -96.8,-30.4 -98,-29.6 -97.7,-27.7 -96.3,-27.7 -95.7,-27.7 -95.4,-27.4 -95.6,-27 -95.8,-26.7 -96.9,-26.6 -97.9,-26.8 -99.6,-27.1 -99.8,-26.9 -99.8,-24.9 -99.8,-22.6 -99.7,-22.5 -96.2,-22.7 -92.8,-22.8 -92.7,-22.8 -92,-20.4 -91.5,-18.6 -91,-18.2 -90.3,-18.8 -89.6,-19.3 -89.6,-20.2 -90,-21.8 z M -72.7,-22.8 C -72.7,-23.4 -73.1,-24 -73.5,-24 -73.8,-24 -74.2,-23.4 -74.2,-22.8 -74.2,-22.2 -73.8,-21.7 -73.5,-21.7 -73.1,-21.7 -72.7,-22.2 -72.7,-22.8 z M -76.3,-30.5 C -75.8,-31.7 -74.9,-33 -74.4,-33.4 -73.5,-34 -73.6,-34.6 -74.7,-36.6 -76.3,-39.3 -77.9,-39.8 -78.5,-37.6 -78.7,-36.8 -79.9,-35.8 -81.1,-35.3 -83.9,-34.4 -83.9,-32.3 -80.8,-30.1 -77.7,-28 -77.4,-28 -76.3,-30.5 z M -88,-33.4 C -87.4,-35 -89,-36.6 -90.1,-35.5 -91.1,-34.5 -90.5,-32.2 -89.3,-32.2 -88.8,-32.2 -88.3,-32.8 -88,-33.4 z M -93.4,-35.3 C -93.2,-35.6 -93.5,-36 -94.1,-36 -94.8,-36 -95.3,-35.6 -95.3,-35.3 -95.3,-34.8 -95,-34.5 -94.6,-34.5 -94.2,-34.5 -93.6,-34.8 -93.4,-35.3 z M -95.4,-40.3 C -95.3,-40.9 -95.8,-41.3 -96.7,-41.3 -98.3,-41.3 -99.4,-40.3 -98.5,-39.5 -97.8,-38.7 -95.8,-39.2 -95.4,-40.3 z M -81.7,-1.79 C -81.7,-2.99 -79.2,-9.69 -78.6,-10.1 -78.1,-10.4 -77.3,-9.99 -76.6,-9.39 -75.7,-8.39 -75.7,-7.89 -76.4,-6.19 -76.9,-5.09 -77.1,-3.59 -76.9,-2.79 -76.5,-1.59 -76.8,-1.39 -79,-1.39 -80.5,-1.39 -81.7,-1.59 -81.7,-1.79 z M -93,-3.89 C -93,-4.29 -92.1,-5.59 -91.1,-6.59 -89.3,-8.29 -89.1,-8.29 -87.9,-6.99 -86.9,-5.99 -86.9,-5.59 -87.6,-5.39 -88.1,-5.09 -89,-4.49 -89.6,-3.89 -90.9,-2.69 -93,-2.59 -93,-3.89 z M -113,-14.5 C -113,-14.7 -112,-15.1 -112,-15.3 -111,-15.5 -111,-15.4 -111,-15 -111,-14.6 -111,-14.2 -112,-14.2 -112,-14.2 -113,-14.3 -113,-14.5 z M -53.9,-23.4 C -53.9,-26.1 -53.6,-26 -52.9,-23.1 -52.6,-21.8 -52.7,-21 -53.2,-21 -53.5,-21 -53.9,-22 -53.9,-23.4 z"
     style="fill:#92988b" />
  <path
     inkscape:connector-curvature="0"
     id="path3065"
     d="M -94.7,16 C -94.9,15.7 -94.8,15.3 -94.4,15.3 -93.9,15.3 -93.5,15.7 -93.5,16 -93.5,16.4 -93.7,16.8 -93.8,16.8 -94.1,16.8 -94.5,16.4 -94.7,16 z M -103,15.5 C -102,15.4 -101,15.4 -100,15.5 -99.2,15.7 -99.8,15.8 -101,15.8 -103,15.9 -104,15.7 -103,15.5 z M -101,12.4 C -101,10.9 -98.8,9.83 -97.3,10.7 -95.8,11.8 -97.1,13.8 -99.2,13.8 -101,13.8 -101,13.4 -101,12.4 z M -105,12.3 C -105,11.9 -105,11.5 -104,11.5 -104,11.5 -103,11.9 -103,12.3 -103,12.7 -104,13 -104,13 -104,13 -104,12.7 -105,12.3 z M -79.7,9.53 C -82,7.02 -82.5,4.42 -81.2,1.32 -80.2,-0.879 -80.2,-1.38 -81.2,-2.18 -82.6,-3.28 -82.6,-5.88 -81.1,-5.88 -79.6,-5.88 -79.7,-6.28 -81.5,-9.33 -82.8,-11.3 -82.9,-11.8 -82,-12.3 -81.4,-12.6 -81,-13.8 -81.1,-14.8 -81.1,-16.2 -80.8,-16.7 -79.7,-16.7 -78.3,-16.7 -77.5,-15.7 -76.7,-13 -76.3,-11.8 -75.7,-11.7 -72.9,-12.1 -70.9,-12.4 -69.5,-12.3 -69.5,-12 -69.5,-11.6 -70.3,-10.1 -71.3,-8.58 -73.4,-5.68 -73.7,-3.98 -72.5,-3.28 -71,-2.28 -71.7,-1.18 -73.5,-1.68 -74.6,-1.88 -76.3,-1.68 -77.4,-1.38 -79.3,-0.679 -79.4,-0.279 -79,2.02 -78.8,3.42 -78.9,4.82 -79.3,5.02 -80.4,5.72 -80.2,6.92 -78.9,6.92 -78.1,6.92 -77.7,7.72 -77.7,9.22 -77.7,10.4 -77.8,11.5 -78,11.5 -78,11.5 -78.9,10.6 -79.7,9.53 z M -84.1,0.117 C -84.4,-0.183 -84.2,-0.579 -83.8,-0.579 -83.4,-0.579 -83,-0.183 -83,0.117 -83,0.519 -83.2,0.919 -83.3,0.919 -83.5,0.919 -83.9,0.519 -84.1,0.117 z M -106,-0.579 C -106,-0.979 -106,-1.38 -106,-1.38 -106,-1.38 -105,-0.979 -105,-0.579 -105,-0.183 -105,0.117 -106,0.117 -106,0.117 -106,-0.183 -106,-0.579 z M -110,-2.58 C -110,-2.98 -110,-4.58 -110,-6.08 -110,-8.48 -110,-8.78 -111,-8.08 -111,-7.58 -112,-6.38 -112,-5.38 -112,-2.88 -113,-2.68 -116,-4.48 -118,-5.48 -118,-5.68 -120,-5.08 -122,-3.98 -122,-4.18 -121,-6.28 -120,-7.58 -120,-8.08 -119,-7.68 -117,-7.18 -117,-8.48 -118,-9.43 -120,-10.3 -121,-20.2 -120,-21 -120,-21.3 -119,-21.4 -118,-21.2 -118,-21 -117,-20.8 -116,-20.8 -115,-20.8 -114,-20.4 -114,-19.9 -115,-19.3 -114,-19 -113,-19.2 -110,-19.6 -110,-17.2 -113,-16.7 -116,-16 -118,-15.2 -118,-13.7 -118,-12.6 -118,-12.5 -117,-12.9 -114,-13.8 -114,-13.7 -114,-11.8 -113,-8.88 -112,-8.58 -107,-10 -105,-10.7 -104,-8.18 -105,-6.88 -106,-6.28 -107,-5.08 -107,-4.18 -107,-2.58 -109,-1.38 -110,-2.58 z M -99,-7.98 C -99.9,-9.83 -99.9,-10.3 -99,-11.7 -98.4,-12.6 -97.8,-14.7 -97.6,-16.4 -97.4,-19.3 -97.5,-19.5 -99.2,-19 -100,-18.8 -101,-18.9 -101,-19.3 -102,-19.6 -101,-20.1 -100,-20.3 -98.6,-20.8 -98.3,-23.3 -99.9,-24.6 -101,-25.1 -102,-25.3 -102,-25.1 -104,-24.5 -106,-26.3 -105,-27.5 -104,-29.1 -91.3,-29.2 -91.3,-27.5 -91.3,-27.2 -92.2,-26.5 -93.4,-26 -95.8,-24.8 -96.6,-20.9 -94.7,-19.3 -93.6,-18.4 -93.7,-18.2 -95.2,-16.6 -96.6,-15 -96.7,-14.7 -95.8,-14.1 -94.1,-13 -92.8,-13.2 -92.8,-14.4 -92.8,-15.1 -92.1,-15.6 -90.9,-15.6 -88.5,-15.6 -88.6,-15 -91.3,-11.8 -93.8,-8.98 -93.2,-6.88 -90.5,-9.33 -89,-10.7 -88.5,-10.1 -89.7,-8.18 -90.2,-7.48 -91.5,-7.18 -93.1,-7.18 -94.5,-7.28 -96,-6.98 -96.2,-6.58 -97,-5.38 -97.9,-5.78 -99,-7.98 z M -87.2,-15.6 C -87.5,-16 -87.3,-16.9 -86.9,-17.4 -86.3,-18 -86.1,-18.9 -86.2,-19.4 -86.3,-20 -85.6,-20.5 -84.7,-20.7 -83,-20.9 -82.9,-20.8 -83.4,-18.4 -83.7,-17.1 -84.1,-15.7 -84.3,-15.3 -84.7,-14.5 -86.6,-14.7 -87.2,-15.6 z M -79.5,-18.9 C -80.2,-19.4 -80.8,-20.2 -80.8,-20.6 -80.8,-21.1 -81.5,-21.9 -82.3,-22.5 -83.5,-23.3 -83.8,-24 -83.5,-25.2 -82.9,-27.1 -80,-27.5 -80,-25.7 -80,-25 -79.3,-24.3 -78.5,-24.1 -77.7,-23.9 -77,-23.4 -77,-23 -77,-22.6 -76.3,-22.3 -75.6,-22.3 -74.1,-22.3 -73.2,-21 -73.2,-18.9 -73.2,-17.5 -77.6,-17.5 -79.5,-18.9 z M -106,-20.2 C -107,-21.4 -105,-22.9 -104,-21.8 -103,-20.9 -104,-19.3 -105,-19.3 -105,-19.3 -106,-19.7 -106,-20.2 z M -111,-24.2 C -111,-24.9 -113,-26 -114,-26.6 -117,-28.2 -116,-28.7 -113,-27.2 -109,-25.8 -108,-24.2 -109,-23.5 -110,-23.2 -110,-23.6 -111,-24.2 z"
     style="fill:#8d9589" />
  <path
     inkscape:connector-curvature="0"
     id="path3063"
     d="M -93.9,-24.6 C -93.2,-24.7 -92,-24.7 -91.3,-24.6 -90.6,-24.4 -91.2,-24.2 -92.6,-24.2 -94.1,-24.2 -94.7,-24.4 -93.9,-24.6 z M -66.3,-47.9 C -66.3,-49.3 -64.3,-52 -63.1,-52 -61.4,-52 -61.2,-48.6 -63,-47.9 -64.3,-47.3 -66.3,-47.2 -66.3,-47.9 z M -110,-59.2 C -111,-60.7 -111,-61.2 -108,-60.9 -106,-60.7 -106,-60.7 -107,-59.3 -109,-58.1 -109,-58.1 -110,-59.2 z"
     style="fill:#87897c" />
  <path
     inkscape:connector-curvature="0"
     id="path3075-1"
     d="M 22.7,-21.9 C 22.4,-22.4 20.7,-22.5 17.8,-22.2 14.1,-21.7 13.3,-21.9 11.9,-23.3 11.1,-24.1 9.53,-24.9 8.43,-24.9 7.43,-24.9 6.53,-25.3 6.53,-25.8 6.53,-26.4 6.03,-27.5 5.43,-28.4 5.13,-30 4.13,-30 2.13,-28.6 0.029,-27.7 -1.97,-27.3 -2.57,-27.6 -3.57,-28.2 -3.57,-30.6 -2.57,-31.2 0.029,-32.3 0.029,-39.9 -2.57,-39.9 -5.57,-39.9 -6.57,-40.6 -5.57,-43.2 -4.57,-44.6 -3.57,-47.1 -4.57,-49.6 -4.57,-52 -4.57,-55.4 -4.57,-57.2 L -4.57,-60.6 0.029,-61 5.13,-61.4 2.13,-63.1 C 0.029,-64 -0.971,-65.1 -0.971,-65.4 2.13,-71.5 2.13,-71.7 5.13,-71.3 6.23,-71.1 7.43,-71.2 7.73,-71.6 8.63,-73 11.7,-72.3 12.9,-70.4 14,-68.7 14.4,-68.6 18.7,-68.9 22.6,-69.1 23.6,-69.5 24.2,-70.8 24.8,-72.1 25.4,-72.4 27.5,-72.1 29,-71.9 31.4,-72.2 32.7,-72.8 34.8,-73.7 35.4,-73.7 36.9,-72.7 37.8,-72.1 39.1,-71.5 39.7,-71.5 40.4,-71.5 41.4,-71 41.9,-70.4 42.7,-69.5 42.7,-68.9 41.8,-67.2 41.3,-66 40.7,-64.8 40.6,-64.5 40.4,-64.2 41.1,-64.2 42.1,-64.4 44.5,-65 45.4,-63.7 46.1,-59 46.6,-55.5 46.4,-55 45,-54.1 44.2,-53.5 43.4,-52.9 43.4,-52.6 43.4,-51.3 45.8,-52 47.6,-53.8 50.4,-56.6 51.3,-56.2 52.2,-51.7 53,-47.8 52.5,-46.3 50.4,-47.1 49.5,-47.4 47.2,-44.4 47.2,-43 47.2,-42.6 48.2,-41.7 49.5,-41.1 51.2,-40.1 51.7,-39.4 51.5,-38.2 51.3,-36.7 50.9,-36.5 46.5,-36.6 L 41.8,-36.7 42.3,-32.1 C 43.3,-24.3 43.3,-24.5 40.5,-24.3 38.8,-24.1 37.5,-24.5 36.3,-25.6 L 34.5,-27.3 33,-25.7 C 32.1,-24.8 31.4,-23.7 31.4,-23.4 31.4,-22 29.3,-22.6 28.1,-24.3 27.2,-25.4 26.6,-25.7 26.4,-25.1 25.5,-23.1 23.3,-21 22.7,-21.9 z"
     style="fill:#d2d3ce" />
  <path
     style="fill:none;stroke:#000000;stroke-width:0.807px;stroke-linecap:butt;stroke-linejoin:miter;stroke-opacity:1"
     d="M -22.4,-9.03 C -22.5,-9.09 -22.4,-9.36 -22.3,-9.42 -22,-9.85 -21.5,-9.12 -21.4,-8.62 -21.1,-6.99 -22.1,-5.68 -23,-5.49 -24.9,-5.1 -26.3,-8.01 -26.3,-10.7 -26.5,-15.7 -23.5,-18.9 -20.7,-18.9 -16.2,-18.7 -13.2,-11.8 -13.5,-5.19"
     id="path3906"
     inkscape:connector-curvature="0" />
  <path
     sodipodi:type="arc"
     style="color:#000000;fill:#b80e0e;fill-opacity:1;fill-rule:nonzero;stroke:none;stroke-width:0.2;marker:none;visibility:visible;display:inline;overflow:visible;enable-background:accumulate"
     id="path3930"
     sodipodi:cx="-7.46"
     sodipodi:cy="-14.9"
     sodipodi:rx="0.707"
     sodipodi:ry="0.803"
     d="M -6.75,-14.9 A 0.707,0.803 0 1 1 -8.17,-14.9 0.707,0.803 0 1 1 -6.75,-14.9 z" />
  <path
     sodipodi:type="arc"
     style="color:#000000;fill:#b80e0e;fill-opacity:1;fill-rule:nonzero;stroke:none;stroke-width:0.2;marker:none;visibility:visible;display:inline;overflow:visible;enable-background:accumulate"
     id="path3932"
     sodipodi:cx="6.14"
     sodipodi:cy="-14.6"
     sodipodi:rx="0.996"
     sodipodi:ry="1.09"
     d="M 7.14,-14.6 A 0.996,1.09 0 1 1 5.14,-14.6 0.996,1.09 0 1 1 7.14,-14.6 z" />
  <path
     sodipodi:type="arc"
     style="color:#000000;fill:#b80e0e;fill-opacity:1;fill-rule:nonzero;stroke:none;stroke-width:0.2;marker:none;visibility:visible;display:inline;overflow:visible;enable-background:accumulate"
     id="path3934"
     sodipodi:cx="-6.68"
     sodipodi:cy="0.514"
     sodipodi:rx="0.771"
     sodipodi:ry="0.771"
     d="M -5.91,0.514 A 0.771,0.771 0 1 1 -7.45,0.514 0.771,0.771 0 1 1 -5.91,0.514 z"
     transform="translate(-0.9,-0.257)" />
  <path
     sodipodi:type="arc"
     style="color:#000000;fill:#b80e0e;fill-opacity:1;fill-rule:nonzero;stroke:none;stroke-width:0.2;marker:none;visibility:visible;display:inline;overflow:visible;enable-background:accumulate"
     id="path3936"
     sodipodi:cx="5.88"
     sodipodi:cy="0.835"
     sodipodi:rx="1.12"
     sodipodi:ry="1.09"
     d="M 7,0.835 A 1.12,1.09 0 1 1 4.76,0.835 1.12,1.09 0 1 1 7,0.835 z"
     transform="translate(0.643,-0.707)" />
  <path
     style="color:#000000;fill:#000000;fill-opacity:1;fill-rule:nonzero;stroke:none;stroke-width:0.2;marker:none;visibility:visible;display:inline;overflow:visible;enable-background:accumulate"
     d="M -30,-18.1 -29.8,-11.3 -27.4,-15 -30,-18.1 z"
     id="path3980"
     inkscape:connector-curvature="0" />
  <path
     style="color:#000000;fill:#000000;fill-opacity:1;fill-rule:nonzero;stroke:none;stroke-width:0.2;marker:none;visibility:visible;display:inline;overflow:visible;enable-background:accumulate"
     d="M -23.3,-5.04 -25.8,-2 -23.5,1.75 -23.3,-5.04 z"
     id="path3980-4"
     inkscape:connector-curvature="0" />
  <path
     style="color:#000000;fill:#d49494;fill-opacity:1;fill-rule:nonzero;stroke:#000000;stroke-width:0.254;stroke-linecap:butt;stroke-linejoin:miter;stroke-miterlimit:4;stroke-opacity:1;stroke-dasharray:none;stroke-dashoffset:0;marker:none;visibility:visible;display:inline;overflow:visible;enable-background:accumulate"
     d="M -1.25 -14.8 C -1.42 -14.8 -1.4 -14.6 -1.25 -14.4 C -1.11 -14.6 -1.08 -14.8 -1.25 -14.8 z M -1.25 -14.4 C -2.03 -12.9 -6.77 -8.24 -8.22 -7.47 C -6.78 -6.69 -2.09 -1.98 -1.31 -0.531 C -0.532 -1.97 4.16 -6.64 5.62 -7.44 C 4.15 -8.27 -0.465 -12.9 -1.25 -14.4 z M 5.62 -7.44 C 5.91 -7.28 6.06 -7.23 6.06 -7.41 C 6.06 -7.58 5.9 -7.59 5.62 -7.44 z M -1.31 -0.531 C -1.46 -0.267 -1.48 -0.0944 -1.31 -0.0938 C -1.15 -0.0931 -1.17 -0.266 -1.31 -0.531 z M -8.22 -7.47 C -8.48 -7.61 -8.62 -7.64 -8.62 -7.47 C -8.63 -7.3 -8.48 -7.33 -8.22 -7.47 z "
     id="path4079" />
  <path
     style="color:#000000;fill:#e0b2b2;fill-opacity:1;fill-rule:nonzero;stroke:#000000;stroke-width:0.143;stroke-linecap:butt;stroke-linejoin:miter;stroke-miterlimit:4;stroke-opacity:1;stroke-dasharray:none;stroke-dashoffset:0;marker:none;visibility:visible;display:inline;overflow:visible;enable-background:accumulate"
     d="M -1.28,-11.7 C -1.37,-11.7 -1.35,-11.6 -1.28,-11.4 -1.2,-11.6 -1.19,-11.7 -1.28,-11.7 z M -1.28,-11.4 C -1.71,-10.6 -4.39,-7.89 -5.19,-7.47 -4.39,-7.04 -1.73,-4.34 -1.3,-3.53 -0.88,-4.34 1.79,-7 2.61,-7.42 1.79,-7.85 -0.86,-10.6 -1.28,-11.4 z M 2.61,-7.42 C 2.74,-7.34 2.84,-7.33 2.84,-7.42 2.84,-7.52 2.74,-7.5 2.61,-7.42 z M -1.3,-3.53 C -1.39,-3.39 -1.41,-3.3 -1.3,-3.3 -1.21,-3.3 -1.23,-3.39 -1.3,-3.53 z M -5.19,-7.47 C -5.33,-7.54 -5.43,-7.56 -5.43,-7.47 -5.43,-7.38 -5.34,-7.4 -5.19,-7.47 z"
     id="path4079-5"
     inkscape:connector-curvature="0" />
</svg>
