<?xml version="1.0" encoding="UTF-8" standalone="no"?>
<!-- Created with Inkscape (http://www.inkscape.org/) -->

<svg
   xmlns:dc="http://purl.org/dc/elements/1.1/"
   xmlns:cc="http://creativecommons.org/ns#"
   xmlns:rdf="http://www.w3.org/1999/02/22-rdf-syntax-ns#"
   xmlns:svg="http://www.w3.org/2000/svg"
   xmlns="http://www.w3.org/2000/svg"
   xmlns:xlink="http://www.w3.org/1999/xlink"
   xmlns:sodipodi="http://sodipodi.sourceforge.net/DTD/sodipodi-0.dtd"
   xmlns:inkscape="http://www.inkscape.org/namespaces/inkscape"
   id="svg2"
   height="100"
   width="100"
   version="1.1"
   inkscape:version="0.48.2 r9819"
   sodipodi:docname="FillGround.svg">
  <defs
     id="defs9">
    <linearGradient
       id="linearGradient3896">
      <stop
         style="stop-color:#dbb458;stop-opacity:1;"
         offset="0"
         id="stop3898" />
      <stop
         id="stop3904"
         offset="0.5"
         style="stop-color:#e9c869;stop-opacity:1;" />
      <stop
         style="stop-color:#f5eacf;stop-opacity:1;"
         offset="1"
         id="stop3900" />
    </linearGradient>
    <radialGradient
       inkscape:collect="always"
       xlink:href="#linearGradient3896"
       id="radialGradient3916"
       cx="19.9"
       cy="-34.9"
       fx="19.9"
       fy="-34.9"
       r="9.73"
       gradientTransform="matrix(1,0,0,0.841,0,-5.56)"
       gradientUnits="userSpaceOnUse" />
    <radialGradient
       inkscape:collect="always"
       xlink:href="#linearGradient3896-8"
       id="radialGradient3916-8"
       cx="19.9"
       cy="-34.9"
       fx="19.9"
       fy="-34.9"
       r="9.73"
       gradientTransform="matrix(1,0,0,0.841,0,-5.56)"
       gradientUnits="userSpaceOnUse" />
    <linearGradient
       id="linearGradient3896-8">
      <stop
         style="stop-color:#dbb458;stop-opacity:1;"
         offset="0"
         id="stop3898-2" />
      <stop
         id="stop3904-7"
         offset="0.5"
         style="stop-color:#e9c869;stop-opacity:1;" />
      <stop
         style="stop-color:#f5eacf;stop-opacity:1;"
         offset="1"
         id="stop3900-7" />
    </linearGradient>
    <radialGradient
       r="9.73"
       fy="-34.9"
       fx="19.9"
       cy="-34.9"
       cx="19.9"
       gradientTransform="matrix(1,0,0,0.841,0,-5.56)"
       gradientUnits="userSpaceOnUse"
       id="radialGradient3934"
       xlink:href="#linearGradient3896-8"
       inkscape:collect="always" />
    <radialGradient
       r="9.73"
       fy="-34.9"
       fx="19.9"
       cy="-34.9"
       cx="19.9"
       gradientTransform="matrix(1,0,0,0.841,0,-5.56)"
       gradientUnits="userSpaceOnUse"
       id="radialGradient3934-2"
       xlink:href="#linearGradient3896-8-6"
       inkscape:collect="always" />
    <linearGradient
       id="linearGradient3896-8-6">
      <stop
         style="stop-color:#dbb458;stop-opacity:1;"
         offset="0"
         id="stop3898-2-0" />
      <stop
         id="stop3904-7-4"
         offset="0.5"
         style="stop-color:#e9c869;stop-opacity:1;" />
      <stop
         style="stop-color:#f5eacf;stop-opacity:1;"
         offset="1"
         id="stop3900-7-9" />
    </linearGradient>
    <radialGradient
       r="9.73"
       fy="-34.9"
       fx="19.9"
       cy="-34.9"
       cx="19.9"
       gradientTransform="matrix(1,0,0,0.841,0,-5.56)"
       gradientUnits="userSpaceOnUse"
       id="radialGradient3971"
       xlink:href="#linearGradient3896-8-6"
       inkscape:collect="always" />
    <radialGradient
       r="9.73"
       fy="-34.9"
       fx="19.9"
       cy="-34.9"
       cx="19.9"
       gradientTransform="matrix(1,0,0,0.841,0,-5.56)"
       gradientUnits="userSpaceOnUse"
       id="radialGradient3934-6"
       xlink:href="#linearGradient3896-8-0"
       inkscape:collect="always" />
    <linearGradient
       id="linearGradient3896-8-0">
      <stop
         style="stop-color:#dbb458;stop-opacity:1;"
         offset="0"
         id="stop3898-2-3" />
      <stop
         id="stop3904-7-6"
         offset="0.5"
         style="stop-color:#e9c869;stop-opacity:1;" />
      <stop
         style="stop-color:#f5eacf;stop-opacity:1;"
         offset="1"
         id="stop3900-7-2" />
    </linearGradient>
    <radialGradient
       r="9.73"
       fy="-34.9"
       fx="19.9"
       cy="-34.9"
       cx="19.9"
       gradientTransform="matrix(1,0,0,0.841,0,-5.56)"
       gradientUnits="userSpaceOnUse"
       id="radialGradient4008"
       xlink:href="#linearGradient3896-8-0"
       inkscape:collect="always" />
    <radialGradient
       inkscape:collect="always"
       xlink:href="#linearGradient3896"
       id="radialGradient4055"
       cx="12.9"
       cy="-18.6"
       fx="12.9"
       fy="-18.6"
       r="13.3"
       gradientTransform="matrix(1,0,0,0.944,0,-1.3)"
       gradientUnits="userSpaceOnUse" />
    <radialGradient
       inkscape:collect="always"
       xlink:href="#linearGradient3896"
       id="radialGradient4065"
       cx="14.1"
       cy="-24.3"
       fx="14.1"
       fy="-24.3"
       r="12.7"
       gradientTransform="matrix(0.828,0,0,0.719,13.3,2.97)"
       gradientUnits="userSpaceOnUse" />
    <radialGradient
       inkscape:collect="always"
       xlink:href="#linearGradient3896-5"
       id="radialGradient4065-4"
       cx="14.1"
       cy="-24.3"
       fx="14.1"
       fy="-24.3"
       r="12.7"
       gradientTransform="matrix(0.828,0,0,0.719,13.3,2.97)"
       gradientUnits="userSpaceOnUse" />
    <linearGradient
       id="linearGradient3896-5">
      <stop
         style="stop-color:#dbb458;stop-opacity:1;"
         offset="0"
         id="stop3898-29" />
      <stop
         id="stop3904-9"
         offset="0.5"
         style="stop-color:#e9c869;stop-opacity:1;" />
      <stop
         style="stop-color:#f5eacf;stop-opacity:1;"
         offset="1"
         id="stop3900-8" />
    </linearGradient>
    <radialGradient
       r="12.7"
       fy="-24.3"
       fx="14.1"
       cy="-24.3"
       cx="14.1"
       gradientTransform="matrix(0.828,0,0,0.719,17.2,-8.12)"
       gradientUnits="userSpaceOnUse"
       id="radialGradient4083"
       xlink:href="#linearGradient3896-5"
       inkscape:collect="always" />
    <radialGradient
       inkscape:collect="always"
       xlink:href="#linearGradient3896"
       id="radialGradient4120"
       cx="11.6"
       cy="-10.2"
       fx="11.6"
       fy="-10.2"
       r="12.4"
       gradientTransform="matrix(0.896,0.078,-0.052,0.597,-80.4,-62.3)"
       gradientUnits="userSpaceOnUse" />
    <radialGradient
       inkscape:collect="always"
       xlink:href="#linearGradient3896"
       id="radialGradient4130"
       cx="-83.2"
       cy="-80.5"
       fx="-83.2"
       fy="-80.5"
       r="22.9"
       gradientTransform="matrix(1,0,0,1.14,0,11.3)"
       gradientUnits="userSpaceOnUse" />
    <radialGradient
       inkscape:collect="always"
       xlink:href="#linearGradient3896"
       id="radialGradient4133"
       gradientUnits="userSpaceOnUse"
       gradientTransform="matrix(0.588,0,0,0.671,160,53.1)"
       cx="-83.2"
       cy="-80.5"
       fx="-83.2"
       fy="-80.5"
       r="22.9" />
    <radialGradient
       inkscape:collect="always"
       xlink:href="#linearGradient3896-7"
       id="radialGradient4133-5"
       gradientUnits="userSpaceOnUse"
       gradientTransform="matrix(0.588,0,0,0.671,61.8,36.4)"
       cx="-83.2"
       cy="-80.5"
       fx="-83.2"
       fy="-80.5"
       r="22.9" />
    <linearGradient
       id="linearGradient3896-7">
      <stop
         style="stop-color:#dbb458;stop-opacity:1;"
         offset="0"
         id="stop3898-8" />
      <stop
         id="stop3904-2"
         offset="0.5"
         style="stop-color:#e9c869;stop-opacity:1;" />
      <stop
         style="stop-color:#f5eacf;stop-opacity:1;"
         offset="1"
         id="stop3900-78" />
    </linearGradient>
    <radialGradient
       r="22.9"
       fy="-80.5"
       fx="-83.2"
       cy="-80.5"
       cx="-83.2"
       gradientTransform="matrix(0.466,0,0,0.531,121,15.6)"
       gradientUnits="userSpaceOnUse"
       id="radialGradient4151"
       xlink:href="#linearGradient3896-7"
       inkscape:collect="always" />
    <radialGradient
       r="22.9"
       fy="-80.5"
       fx="-83.2"
       cy="-80.5"
       cx="-83.2"
       gradientTransform="matrix(0.588,0,0,0.671,76.9,30.5)"
       gradientUnits="userSpaceOnUse"
       id="radialGradient4151-2"
       xlink:href="#linearGradient3896-7-0"
       inkscape:collect="always" />
    <linearGradient
       id="linearGradient3896-7-0">
      <stop
         style="stop-color:#dbb458;stop-opacity:1;"
         offset="0"
         id="stop3898-8-8" />
      <stop
         id="stop3904-2-9"
         offset="0.5"
         style="stop-color:#e9c869;stop-opacity:1;" />
      <stop
         style="stop-color:#f5eacf;stop-opacity:1;"
         offset="1"
         id="stop3900-78-2" />
    </linearGradient>
    <radialGradient
       r="22.9"
       fy="-80.5"
       fx="-83.2"
       cy="-80.5"
       cx="-83.2"
       gradientTransform="matrix(0.54,0,0,0.616,122,43.4)"
       gradientUnits="userSpaceOnUse"
       id="radialGradient4188"
       xlink:href="#linearGradient3896-7-0"
       inkscape:collect="always" />
    <radialGradient
       r="22.9"
       fy="-80.5"
       fx="-83.2"
       cy="-80.5"
       cx="-83.2"
       gradientTransform="matrix(0.588,0,0,0.671,72.1,40.8)"
       gradientUnits="userSpaceOnUse"
       id="radialGradient4188-2"
       xlink:href="#linearGradient3896-7-0-0"
       inkscape:collect="always" />
    <linearGradient
       id="linearGradient3896-7-0-0">
      <stop
         style="stop-color:#dbb458;stop-opacity:1;"
         offset="0"
         id="stop3898-8-8-5" />
      <stop
         id="stop3904-2-9-5"
         offset="0.5"
         style="stop-color:#e9c869;stop-opacity:1;" />
      <stop
         style="stop-color:#f5eacf;stop-opacity:1;"
         offset="1"
         id="stop3900-78-2-2" />
    </linearGradient>
    <radialGradient
       r="22.9"
       fy="-80.5"
       fx="-83.2"
       cy="-80.5"
       cx="-83.2"
       gradientTransform="matrix(0.489,0,0,0.558,105,5.85)"
       gradientUnits="userSpaceOnUse"
       id="radialGradient4225"
       xlink:href="#linearGradient3896-7-0-0"
       inkscape:collect="always" />
  </defs>
  <sodipodi:namedview
     pagecolor="#ffffff"
     bordercolor="#666666"
     borderopacity="1"
     objecttolerance="10"
     gridtolerance="10"
     guidetolerance="10"
     inkscape:pageopacity="0"
     inkscape:pageshadow="2"
     inkscape:window-width="1920"
     inkscape:window-height="1009"
     id="namedview7"
     showgrid="true"
     inkscape:zoom="3.89"
     inkscape:cx="-18.7"
     inkscape:cy="159"
     inkscape:window-x="1916"
     inkscape:window-y="-4"
     inkscape:window-maximized="1"
     inkscape:current-layer="svg2"
     inkscape:snap-global="false">
    <inkscape:grid
       type="xygrid"
       id="grid3005"
       empspacing="5"
       visible="true"
       enabled="true"
       snapvisiblegridlinesonly="true"
       originx="0px"
       originy="0px" />
  </sodipodi:namedview>
  <metadata
     id="metadata7">
    <rdf:RDF>
      <cc:Work
         rdf:about="">
        <dc:format>image/svg+xml</dc:format>
        <dc:type
           rdf:resource="http://purl.org/dc/dcmitype/StillImage" />
        <dc:title />
      </cc:Work>
    </rdf:RDF>
  </metadata>
  <path
     style="color:#000000;fill:#f5eacf;fill-opacity:1;fill-rule:nonzero;stroke:#000000;stroke-width:0.107;stroke-linecap:butt;stroke-linejoin:miter;stroke-miterlimit:4;stroke-opacity:1;stroke-dashoffset:0;marker:none;visibility:visible;display:inline;overflow:visible;enable-background:accumulate"
     d="M -1.86,-17.9 17.9,-17.9 17.9,1.91 -1.86,1.91 z"
     id="rect2987"
     inkscape:connector-curvature="0" />
  <image
     y="-86"
     x="-1.03"
     id="image3765"
     xlink:href="file:///C:/wamp/www/l8s/image/V2terrain1.gif"
     height="38.5"
     width="44"
     style="fill:#1b1801;fill-opacity:1" />
  <path
     style="fill:#f5eacf"
     d="M -47.5,13.3 C -48.2,13.5 -49.1,13.5 -49.8,13.5 -50.2,13.9 -51,14.2 -51.9,14.2 -52.8,14.4 -53.3,13.6 -54.1,13.5 -55,13.5 -56,13.5 -56.4,14.1 -57.1,14.5 -57,15.3 -56.2,15.5 -55.8,15.6 -55.6,15.7 -56.2,15.7 -56.8,15.8 -57.7,15.6 -58.2,16.1 -58.2,16.9 -57.8,17.7 -58,18.5 -57.8,19 -59.1,19.9 -58,20.1 -57.6,20.1 -57.3,20.2 -57.1,20.5 -57.2,20.7 -57.1,20.9 -57,21 -57,21.2 -57,21.4 -57.1,21.4 -57.2,21.5 -57.2,21.5 -57.3,21.6 -57.8,21.6 -58.2,21.7 -58.4,22 -58.5,22.8 -58.1,23.6 -58.2,24.4 -58,24.9 -59.4,25.8 -58.2,25.9 -57.3,25.9 -57.1,26.8 -57.4,27.3 -57.8,27.6 -58.7,28.3 -57.6,28.5 -56.8,28.7 -55.9,27.8 -55.5,28.5 -55.3,29.3 -54.2,29 -53.6,29.4 -52.8,29.9 -51.8,29.3 -50.9,29.6 -50.5,29.7 -50.3,29.5 -50.1,29.3 -49.9,28.9 -49.3,28.9 -49.1,29.4 -48.3,29.8 -48.2,28.3 -47.3,28.8 -46.9,29.4 -46,29 -45.3,29.1 -45.3,28.9 -45.3,28.8 -45.4,28.6 -44.9,28.4 -44.4,28.2 -44.2,28.7 -44,29.5 -42.9,29.2 -42.3,29.6 -41.4,30.1 -40.4,29.5 -39.5,29.8 -39.1,29.9 -38.9,29.6 -38.7,29.5 -38.5,29 -38,29.1 -37.7,29.5 -37,30 -36.8,28.5 -36,29 -35.6,29.5 -34.7,29.2 -34,29.3 -34.1,28.5 -34.2,27.7 -34.2,26.9 -33.7,26.7 -32.7,26.9 -32,26.9 -31.3,27 -31.6,26 -32.1,25.9 -33.2,25.9 -32.8,24.8 -31.9,24.7 -30.9,24.6 -31.6,23.6 -31.7,23.1 -32.1,22.4 -32.9,23.4 -33.5,23.5 -33.8,23.4 -32.9,23 -33.1,22.7 -33.3,22.1 -32.9,21.3 -33.8,21.1 -34.9,21 -33.8,20.3 -34.3,19.8 -34.9,19.6 -35.6,19.3 -36.4,19.3 -37.2,19.5 -38,19.5 -38.7,19.5 -39,20 -40,20.2 -40.8,20.2 -41.7,20.4 -42.2,19.6 -43,19.5 -43.3,19.5 -43.6,19.5 -43.8,19.5 -43.9,19.2 -43.6,18.7 -43,18.7 -42,18.5 -42.7,17.6 -42.8,17.1 -43.2,16.3 -44,17.4 -44.5,17.5 -44.9,17.4 -44,17 -44.2,16.7 -44.4,16.1 -44,15.3 -44.8,15 -45.9,15 -44.9,14.3 -45.3,13.8 -46,13.6 -46.7,13.3 -47.5,13.3 z"
     id="path3786"
     inkscape:connector-curvature="0" />
  <path
     style="fill:#e9cf8e"
     d="M -46.5,16.9 C -51.5,19 -54,10.5 -57.9,13.4 -60.2,12.4 -54.4,8.35 -59.2,7.75 -61.8,6.55 -57.7,2.72 -59.4,-0.035 -59.8,-3.94 -52.2,-1.05 -56.9,-4.81 -56.5,-10.6 -49.4,-4.54 -46.3,-6.1 -44.2,-8.66 -35.9,-9.33 -38.5,-3.81 -32.9,-5.49 -39.6,5.95 -33.9,0.845 -30.6,2.25 -33.3,5.08 -35.2,5.28 -34.8,7.55 -31.8,10.3 -36.5,8.95 -39,10.3 -36,17.7 -41.1,14.3 -43.2,14.2 -43.2,15.9 -44.8,14.7 -45.6,15.2 -45.7,16.5 -46.5,16.9 z"
     id="path3782"
     inkscape:connector-curvature="0" />
  <path
     style="fill:#e9c869"
     d="M -45.5,3.9 C -50.9,5.53 -53.5,-1.42 -57.4,-0.249 -60.2,1.31 -55.5,-7.32 -60.9,-6.02 -60.2,-9.93 -60.2,-16.5 -55.6,-15.6 -60.2,-21.7 -49.9,-19.5 -46.5,-18.3 -43.9,-19.1 -43.2,-20 -40.8,-20.1 -38.2,-23.5 -34.6,-18.9 -36,-16.3 -29.8,-17.7 -37.9,-6.92 -30.8,-11.4 -27.1,-10.3 -29.6,-7.89 -32,-8.39 -35.1,-5.92 -27.4,-3.22 -32.8,-4.32 -38.4,-3.72 -32.5,4.31 -38.8,1.31 -41.9,2.2 -44.5,0.287 -45.1,4.24 L -45.5,3.9 z M -61.7,-5.42 C -61.7,-6.92 -60.2,-4.72 -61.7,-5.42 z"
     id="path3780"
     inkscape:connector-curvature="0" />
  <path
     style="fill:#e9c45a"
     d="M -45.5,-9.88 C -46.5,-11 -44.4,-9.78 -45.5,-9.88 z M -49.9,-11.3 C -52,-12.7 -54.1,-14.1 -56.3,-15.5 -57.8,-15 -58.8,-16.9 -58.5,-18.2 -58.1,-19.2 -58.1,-20.3 -58.8,-21.4 -59.4,-22.6 -59.8,-23.9 -59.5,-25.3 -59.4,-26.9 -60.1,-28.7 -59,-30.2 -57.9,-31 -55.9,-31.3 -55.8,-33 -56.5,-34.6 -56.1,-36.9 -54.1,-37 -51.3,-37.3 -48.9,-33.7 -50.4,-31.2 -51.5,-30.2 -51.6,-27.5 -49.7,-27.3 -47.6,-27.7 -48.1,-30.3 -48.4,-31.9 -48,-34.3 -45.4,-35.7 -43.1,-35.6 -41.4,-35.9 -40.1,-37.5 -38.3,-37.6 -36.8,-37.4 -36.5,-35.7 -36.1,-34.4 -35.8,-32.6 -33.2,-32.1 -33.2,-30.2 -33.8,-28.7 -34.4,-26.7 -32.5,-25.9 -30.2,-25.3 -32.5,-23.5 -32.7,-22.2 -31.9,-20.7 -33.1,-18.8 -34.9,-19 -36.5,-18.5 -35.9,-16.6 -35.8,-15.4 -35.1,-13.8 -37.1,-12.6 -38.5,-13.1 -39.9,-13.6 -41.5,-13.7 -42.8,-12.8 -44.9,-11.8 -47.5,-10.2 -49.9,-11.3 z M -28.8,-24.4 C -30.1,-23.9 -28.8,-25.3 -28.8,-24.4 z"
     id="path3778"
     inkscape:connector-curvature="0"
     sodipodi:nodetypes="cccccccccccccccccccccccccc" />
  <path
     style="fill:#e2bc58"
     d="M -45.6,-22.6 C -48.1,-24.7 -53.4,-24.8 -54.6,-26.7 -59.1,-23.4 -53.1,-31.5 -57.8,-32.3 -56.4,-34.9 -57.6,-37.8 -57.7,-40.7 -54.8,-41.8 -49,-36.8 -53.7,-35.2 -50,-34.5 -46.5,-34.1 -49.5,-29.8 -48.9,-24.5 -44.5,-28.7 -46.5,-32 -45.5,-36.2 -37.1,-33.9 -38.5,-39 -41.2,-36.1 -47.3,-35.2 -44.6,-41 -43,-44.7 -38.7,-50.8 -35.5,-45.6 -40,-42.5 -29.5,-41.8 -34.4,-38.4 -36.3,-33.8 -28.1,-39.3 -32.4,-35.5 -36,-33.5 -41.6,-31.3 -43.6,-28.6 -43.9,-21.6 -34.9,-32.6 -35.1,-24.8 -37.3,-22.9 -42.9,-26.7 -45,-22.5 z"
     id="path3776"
     inkscape:connector-curvature="0"
     sodipodi:nodetypes="cccccccccccccccc" />
  <path
     style="fill:#dbb458"
     d="M -39.6,-35.2 C -42.8,-35.5 -41.7,-37.5 -39.3,-38.3 -37.5,-38.3 -37.5,-32.7 -39.6,-35.2 z M -51,-36.5 C -51.6,-39.7 -54.7,-34.8 -53.1,-38.9 -53.6,-41.6 -55.7,-47.2 -52.1,-44.7 -48.4,-44.7 -47.7,-34.3 -51,-35.5 L -51,-36.5 z M -35.6,-41 C -35.4,-43.3 -33.8,-39 -35.6,-41 z M -45.2,-42.7 C -45.2,-48.5 -37.6,-43.1 -43,-42.7 -43.7,-42.5 -44.5,-42.2 -45.2,-42.7 z M -39.9,-46.9 C -39.2,-50.5 -36.8,-44.1 -39.9,-46.9 z M -54.1,-49.7 C -56.7,-53.1 -51,-51.9 -53.1,-48.7 L -53.6,-49.1 -54.1,-49.7 z M -39,-49.7 C -40.5,-54.4 -34.7,-54 -37.2,-49.8 -37.6,-48.9 -38.7,-48.2 -39,-49.7 z M -43.7,-49.7 C -42.9,-51.7 -43.3,-47.6 -43.7,-49.7 z M -42.8,-50.8 C -45.5,-53.1 -41.7,-58 -40.8,-58.9 -39.1,-55.3 -39,-49.7 -42.8,-50.8 z M -39.8,-57 C -39,-59.9 -37.8,-54.5 -39.8,-57 z"
     id="path3774"
     inkscape:connector-curvature="0" />
  <path
     style="fill:#000000"
     d=""
     id="path3770"
     inkscape:connector-curvature="0" />
  <path
     style="fill:#000000"
     d=""
     id="path3768"
     inkscape:connector-curvature="0" />
  <path
     style="fill:#edd9ab"
     d="M -48.4,25.1 C -52,26.1 -54.2,21.5 -57.2,22.7 -56.5,20.9 -55.7,19 -58.4,18.2 -56.1,16.2 -60,10.8 -55.2,11.6 -54.4,10.6 -57.4,9.58 -55.3,8.28 -52.2,7.08 -49.2,10.3 -46.1,7.68 -43.9,6.78 -41.4,8.18 -42.1,10.6 -38.6,9.78 -42.9,17.1 -39.4,13.8 -36.9,14.2 -38.6,17.3 -40.2,17.5 -39.1,18.8 -37.9,20.2 -40.8,19.7 -43.3,20 -40.4,26.2 -44,23.3 -45.3,23.9 -46.4,25 -47.3,23.7 -47.7,23.9 -47.7,25.7 -48.4,25.1 z"
     id="path3784-4"
     inkscape:connector-curvature="0" />
  <path
     sodipodi:type="arc"
     style="color:#000000;fill:url(#radialGradient3916);fill-opacity:1;fill-rule:nonzero;stroke:none;stroke-width:0.2;marker:none;visibility:visible;display:inline;overflow:visible;enable-background:accumulate"
     id="path3906"
     sodipodi:cx="19.9"
     sodipodi:cy="-34.9"
     sodipodi:rx="9.73"
     sodipodi:ry="8.18"
     d="M 29.6,-34.9 A 9.73,8.18 0 1 1 10.2,-34.9 9.73,8.18 0 1 1 29.6,-34.9 z"
     transform="matrix(-0.477,1.06,-1.06,-0.477,-74.2,-110)" />
  <path
     style="opacity:0.5;color:#000000;fill:url(#radialGradient4133);fill-opacity:1;fill-rule:nonzero;stroke:none;stroke-width:0.2;marker:none;visibility:visible;display:inline;overflow:visible;enable-background:accumulate"
     inkscape:transform-center-x="0.344"
     inkscape:transform-center-y="-0.903"
     d="M 119,10.3 C 116,12.2 117,8.61 114,9.41 111,10.3 117,14.8 114,14.5 111,14.2 113,8.11 110,7.21 106,6.21 105,9.81 102,7.41 99.4,5.01 108,3.21 106,0.508 105,-2.09 96.5,1.51 97.6,-1.99 98.8,-5.29 104,-1.99 106,-4.79 108,-7.49 100,-8.79 103,-10.6 106,-12.3 109,-8.49 112,-8.49 115,-8.69 112,-15.3 115,-16.5 118,-17.1 113,-7.49 117,-6.29 120,-5.09 123,-11 124,-7.69 126,-4.39 118,-3.69 120,-0.892 122,2.01 124,-3.69 123,-0.692 123,2.51 121,1.71 120,5.01 120,8.31 122,8.41 119,10.3 z"
     id="path4122"
     inkscape:connector-curvature="0" />
  <path
     style="opacity:0.5;color:#000000;fill:url(#radialGradient4151);fill-opacity:1;fill-rule:nonzero;stroke:none;stroke-width:0.2;marker:none;visibility:visible;display:inline;overflow:visible;enable-background:accumulate"
     inkscape:transform-center-x="0.258"
     inkscape:transform-center-y="-0.727"
     d="M 88.5,-18.4 C 86.5,-16.9 86.9,-19.8 84.6,-19.1 82.3,-18.4 86.9,-14.8 84.5,-15.1 81.9,-15.3 83.7,-20.1 81,-20.9 78.4,-21.7 77.2,-18.8 75.1,-20.7 73,-22.6 79.7,-24 78.5,-26.1 77.3,-28.2 70.7,-25.3 71.6,-28.1 72.5,-30.7 76.4,-28.1 78.2,-30.3 79.9,-32.4 73.5,-33.4 75.9,-34.8 78.4,-36.2 80.3,-33.1 83,-33.1 85.6,-33.3 82.7,-38.5 85,-39.5 87.7,-40 83.9,-32.4 86.6,-31.5 89.3,-30.5 91.7,-35.1 92.5,-32.5 94.1,-30 87.7,-29.4 89.3,-27.2 90.9,-24.9 92.5,-29.4 91.7,-27 91.7,-24.5 90.1,-25.1 89.3,-22.6 89.3,-20 90.9,-19.9 88.5,-18.4 z"
     id="path4122-0"
     inkscape:connector-curvature="0" />
  <path
     style="opacity:0.5;color:#000000;fill:url(#radialGradient4188);fill-opacity:1;fill-rule:nonzero;stroke:none;stroke-width:0.2;marker:none;visibility:visible;display:inline;overflow:visible;enable-background:accumulate"
     inkscape:transform-center-x="0.308"
     inkscape:transform-center-y="-0.849"
     d="M 83.5,4.23 C 81,5.98 81.6,2.67 78.9,3.49 76.2,4.23 81.8,8.36 78.7,8.08 75.7,7.81 77.8,2.3 74.7,1.38 71.6,0.456 70.2,3.77 67.7,1.57 65.3,-0.674 73.1,-2.37 71.8,-4.77 70.3,-7.17 62.7,-3.87 63.7,-7.07 64.8,-10.2 69.3,-7.07 71.3,-9.67 73.3,-12.1 65.9,-13.3 68.6,-14.9 71.6,-16.5 73.9,-13 77,-13 80,-13.2 76.6,-19.3 79.4,-20.4 82.1,-20.9 78,-12.1 81.2,-11.1 84.2,-9.97 86.7,-15.3 88.2,-12.3 89.5,-9.27 82.3,-8.67 84.2,-6.07 86,-3.37 87.9,-8.67 87.5,-5.87 87.1,-2.97 85.1,-3.67 84.6,-0.674 84.1,2.39 86.1,2.48 83.5,4.23 z"
     id="path4122-0-8"
     inkscape:connector-curvature="0" />
  <path
     style="opacity:0.5;color:#000000;fill:url(#radialGradient4225);fill-opacity:1;fill-rule:nonzero;stroke:none;stroke-width:0.2;marker:none;visibility:visible;display:inline;overflow:visible;enable-background:accumulate"
     inkscape:transform-center-x="0.285"
     inkscape:transform-center-y="-0.739"
     d="M 71.3,-29.8 C 69.1,-28.2 69.6,-31.1 67.2,-30.5 64.7,-29.8 69.8,-26 67,-26.3 64.3,-26.5 66.2,-31.5 63.3,-32.3 60.5,-33.1 59.2,-30.2 57,-32.1 54.8,-34.1 61.9,-35.6 60.6,-37.9 59.3,-40 52.4,-37 53.3,-39.9 54.3,-42.7 58.4,-39.9 60.2,-42.3 62.1,-44.4 55.3,-45.5 57.8,-47 60.5,-48.4 62.6,-45.3 65.4,-45.3 68.2,-45.4 65.1,-50.9 67.6,-51.9 70.1,-52.4 66.4,-44.4 69.3,-43.5 72,-42.5 74.3,-47.3 75.6,-44.6 76.9,-41.9 70.3,-41.4 71.9,-39 73.6,-36.6 75.3,-41.4 74.9,-38.9 74.6,-36.2 72.8,-36.9 72.3,-34.1 71.8,-31.4 73.7,-31.3 71.3,-29.8 z"
     id="path4122-0-8-7"
     inkscape:connector-curvature="0" />
</svg>
