<?xml version="1.0" encoding="UTF-8" standalone="no"?>
<!-- Created with Inkscape (http://www.inkscape.org/) -->

<svg
   xmlns:dc="http://purl.org/dc/elements/1.1/"
   xmlns:cc="http://creativecommons.org/ns#"
   xmlns:rdf="http://www.w3.org/1999/02/22-rdf-syntax-ns#"
   xmlns:svg="http://www.w3.org/2000/svg"
   xmlns="http://www.w3.org/2000/svg"
   xmlns:xlink="http://www.w3.org/1999/xlink"
   xmlns:sodipodi="http://sodipodi.sourceforge.net/DTD/sodipodi-0.dtd"
   xmlns:inkscape="http://www.inkscape.org/namespaces/inkscape"
   id="svg2"
   height="100"
   width="100"
   version="1.1"
   inkscape:version="0.48.2 r9819"
   sodipodi:docname="Forest.svg">
  <defs
     id="defs9">
    <linearGradient
       inkscape:collect="always"
       id="linearGradient3751">
      <stop
         style="stop-color:#000000;stop-opacity:1;"
         offset="0"
         id="stop3753" />
      <stop
         style="stop-color:#000000;stop-opacity:0;"
         offset="1"
         id="stop3755" />
    </linearGradient>
    <linearGradient
       inkscape:collect="always"
       xlink:href="#linearGradient3751"
       id="linearGradient3757"
       x1="148.25"
       y1="76.75"
       x2="135"
       y2="37.25"
       gradientUnits="userSpaceOnUse"
       gradientTransform="matrix(0.27,0,0,0.27,-36,-20)" />
  </defs>
  <sodipodi:namedview
     pagecolor="#ffffff"
     bordercolor="#666666"
     borderopacity="1"
     objecttolerance="10"
     gridtolerance="10"
     guidetolerance="10"
     inkscape:pageopacity="0"
     inkscape:pageshadow="2"
     inkscape:window-width="1920"
     inkscape:window-height="1061"
     id="namedview7"
     showgrid="true"
     inkscape:zoom="11"
     inkscape:cx="25"
     inkscape:cy="1.2e+002"
     inkscape:window-x="-4"
     inkscape:window-y="80"
     inkscape:window-maximized="1"
     inkscape:current-layer="svg2"
     inkscape:snap-global="false">
    <inkscape:grid
       type="xygrid"
       id="grid3005"
       empspacing="5"
       visible="true"
       enabled="true"
       snapvisiblegridlinesonly="true"
       originx="0px"
       originy="0px" />
  </sodipodi:namedview>
  <metadata
     id="metadata7">
    <rdf:RDF>
      <cc:Work
         rdf:about="">
        <dc:format>image/svg+xml</dc:format>
        <dc:type
           rdf:resource="http://purl.org/dc/dcmitype/StillImage" />
        <dc:title />
      </cc:Work>
    </rdf:RDF>
  </metadata>
  <path
     style="fill:url(#linearGradient3757);fill-opacity:1;stroke:#000000;stroke-width:0.27px;stroke-linecap:butt;stroke-linejoin:miter;stroke-opacity:1"
     d="M -0.57,0.16 -0.64,-6.5 C -1.5,-6.2 -3.5,-5.3 -4,-6 -4.3,-6.5 -3.4,-7.4 -3.4,-7.4 -3.4,-7.4 -5.2,-8.1 -5.2,-8.8 -5.2,-9.6 -3.7,-9.9 -3.7,-9.9 -3.7,-9.9 -4.4,-12 -3.9,-12 -3.4,-13 -1.9,-12 -1.9,-12 -1.9,-12 0.33,-14 1.3,-14 2.2,-14 2.7,-12 2.7,-12 2.7,-12 4,-13 4.7,-12 6.5,-11 6.1,-9.9 4.9,-8.5 4.9,-8.5 5.3,-7.6 5.1,-7.2 4.8,-6.9 3.7,-6.9 3.7,-6.9 3.7,-6.9 4.4,-5.7 4,-5.2 3,-4.7 1.8,-5.3 0.93,-5.6 L 0.83,0.03"
     id="path3011"
     inkscape:connector-curvature="0"
     sodipodi:nodetypes="cccczczczccczcccc" />
</svg>
