<?xml version="1.0" encoding="UTF-8" standalone="no"?>
<!-- Created with Inkscape (http://www.inkscape.org/) -->

<svg
   xmlns:dc="http://purl.org/dc/elements/1.1/"
   xmlns:cc="http://creativecommons.org/ns#"
   xmlns:rdf="http://www.w3.org/1999/02/22-rdf-syntax-ns#"
   xmlns:svg="http://www.w3.org/2000/svg"
   xmlns="http://www.w3.org/2000/svg"
   xmlns:sodipodi="http://sodipodi.sourceforge.net/DTD/sodipodi-0.dtd"
   xmlns:inkscape="http://www.inkscape.org/namespaces/inkscape"
   id="svg2"
   height="100"
   width="100"
   version="1.1"
   inkscape:version="0.48.2 r9819"
   sodipodi:docname="Mountain.svg">
  <defs
     id="defs9" />
  <sodipodi:namedview
     pagecolor="#ffffff"
     bordercolor="#666666"
     borderopacity="1"
     objecttolerance="10"
     gridtolerance="10"
     guidetolerance="10"
     inkscape:pageopacity="0"
     inkscape:pageshadow="2"
     inkscape:window-width="1438"
     inkscape:window-height="823"
     id="namedview7"
     showgrid="true"
     inkscape:zoom="11"
     inkscape:cx="27"
     inkscape:cy="1.2e+002"
     inkscape:window-x="1195"
     inkscape:window-y="191"
     inkscape:window-maximized="0"
     inkscape:current-layer="svg2"
     inkscape:snap-global="false">
    <inkscape:grid
       type="xygrid"
       id="grid3005"
       empspacing="5"
       visible="true"
       enabled="true"
       snapvisiblegridlinesonly="true"
       originx="0px"
       originy="0px" />
  </sodipodi:namedview>
  <metadata
     id="metadata7">
    <rdf:RDF>
      <cc:Work
         rdf:about="">
        <dc:format>image/svg+xml</dc:format>
        <dc:type
           rdf:resource="http://purl.org/dc/dcmitype/StillImage" />
        <dc:title />
      </cc:Work>
    </rdf:RDF>
  </metadata>
  <path
     style="fill:none;stroke:#000000;stroke-width:0.56px;stroke-linecap:butt;stroke-linejoin:miter;stroke-opacity:1"
     d="M 0,-24 C 5,-25 15,-37 16,-38 17,-40 19,-36 21,-37 23,-38 25,-41 25,-41 25,-41 27,-42 30,-36 31,-33 36,-24 39,-24 39,-24 19,-25 14,-25 8,-25 0,-24 0,-24 z"
     id="path2984"
     inkscape:connector-curvature="0"
     sodipodi:nodetypes="cszcsc" />
  <path
     style="fill:none;stroke:#000000;stroke-width:0.56px;stroke-linecap:butt;stroke-linejoin:miter;stroke-opacity:1"
     d="M -20,-0.27 C -15,-1.3 -5,-13 -4,-14 -1.9,-16 -0.9,-12 1.1,-13 3.1,-14 5.1,-17 5.1,-17 5.1,-17 7.1,-18 10,-12 11,-9.3 16,-0.27 19,-0.27"
     id="path2984-1"
     inkscape:connector-curvature="0"
     sodipodi:nodetypes="cszcsc" />
</svg>
